<?xml version="1.0" encoding="iso-8859-1"?>
<!-- Generator: Adobe Illustrator 18.0.0, SVG Export Plug-In . SVG Version: 6.00 Build 0)  -->
<!DOCTYPE svg PUBLIC "-//W3C//DTD SVG 1.1//EN" "http://www.w3.org/Graphics/SVG/1.1/DTD/svg11.dtd">
<svg version="1.1" id="Capa_1" xmlns="http://www.w3.org/2000/svg" xmlns:xlink="http://www.w3.org/1999/xlink" x="0px" y="0px"
	 viewBox="0 0 497.265 497.265" style="enable-background:new 0 0 497.265 497.265;" xml:space="preserve">
<g>
	<path d="M255.995,65.773l-5.007-63.598C250.889,0.952,249.871,0,248.64,0c-1.216,0-2.25,0.952-2.346,2.175l-4.992,63.598
		c2.413-0.336,4.844-0.623,7.338-0.623C251.153,65.149,253.566,65.437,255.995,65.773z"/>
	<path d="M228.679,69.04L203.741,8.873c-0.458-1.141-1.723-1.724-2.905-1.346c-1.167,0.386-1.856,1.609-1.561,2.807l15.892,66.176
		C219.239,73.39,223.835,70.936,228.679,69.04z"/>
	<path d="M195.091,94.592c0.212,0.337,0.493,0.714,0.739,1.018c0.753,0.887,1.657,1.535,2.642,2.011
		c2.232-4.95,5.236-9.448,8.766-13.486l-46.311-54.24c-0.804-0.936-2.184-1.1-3.184-0.378c-1.002,0.722-1.247,2.093-0.608,3.136
		L195.091,94.592z"/>
	<path d="M179.117,114.046c0.311,0.254,0.673,0.525,1.034,0.746c0.624,0.386,1.313,0.534,2.002,0.731
		c2.955-3.185,6.337-5.96,10.096-8.233c-0.213-2.479-1.412-4.843-3.693-6.238l-61.875-37.947c-1.05-0.64-2.412-0.37-3.134,0.624
		c-0.741,0.993-0.576,2.38,0.361,3.177L179.117,114.046z"/>
	<path d="M102.927,109.753l67.08,27.777c0.179,0.065,0.361,0.115,0.523,0.18c1.167-5.302,3.12-10.31,5.877-14.791
		c-0.476-0.222-0.903-0.534-1.428-0.665l-70.607-16.966c-1.198-0.287-2.413,0.394-2.79,1.56
		C101.203,108.013,101.779,109.285,102.927,109.753z"/>
	<path d="M163.652,153.471c2.053,0,4.088,0.131,6.058,0.385c-0.246-1.986-0.378-4.005-0.378-6.057c0-0.378,0.066-0.73,0.082-1.108
		c-0.278-0.009-0.524-0.124-0.803-0.099l-72.48,5.697c-1.214,0.098-2.167,1.123-2.167,2.355c0,1.231,0.954,2.257,2.167,2.347
		l42.979,3.373C146.283,156.022,154.673,153.471,163.652,153.471z"/>
	<path d="M401.134,152.289l-72.495-5.697c-0.248-0.017-0.51,0-0.756,0c0,0.41,0.083,0.796,0.083,1.207
		c0,2.052-0.133,4.071-0.378,6.057c1.986-0.254,4.006-0.385,6.057-0.385c8.979,0,17.369,2.552,24.526,6.894l42.962-3.373
		c1.215-0.09,2.167-1.117,2.167-2.347C403.301,153.412,402.349,152.387,401.134,152.289z"/>
	<path d="M321.021,122.672c-0.082,0.033-0.13,0.099-0.198,0.131c2.792,4.498,4.76,9.53,5.944,14.857
		c0.114-0.049,0.262-0.025,0.41-0.083l67.191-27.809c1.134-0.468,1.725-1.74,1.331-2.906c-0.377-1.173-1.592-1.847-2.791-1.567
		l-70.689,16.982C321.825,122.377,321.398,122.517,321.021,122.672z"/>
	<path d="M307.708,101.824c-1.674,1.42-2.593,3.373-2.79,5.393c3.856,2.323,7.304,5.155,10.342,8.422
		c1.034-0.312,2.036-0.821,2.905-1.567l55.208-47.141c0.936-0.804,1.102-2.183,0.379-3.176c-0.74-1.001-2.102-1.264-3.152-0.624
		l-61.875,37.947C308.38,101.29,308.018,101.544,307.708,101.824z"/>
	<path d="M298.793,97.531c1.33-0.648,2.561-1.543,3.397-2.906l37.957-61.923c0.639-1.051,0.377-2.413-0.624-3.136
		c-1.001-0.722-2.381-0.566-3.169,0.37L290.075,84.16C293.588,88.166,296.561,92.622,298.793,97.531z"/>
	<path d="M297.988,10.359c0.296-1.198-0.393-2.421-1.559-2.799c-1.182-0.378-2.445,0.205-2.906,1.346L268.62,69.048
		c4.843,1.896,9.422,4.351,13.494,7.462L297.988,10.359z"/>
	<path d="M361.175,202.399h-4.743v-1.42c0-12.591-10.211-22.794-22.787-22.794c-12.575,0-22.803,10.203-22.803,22.794v1.42h-31.815
		v-31.807h1.445c12.575,0,22.786-10.202,22.786-22.794c0-12.592-10.211-22.794-22.786-22.794h-1.445v-4.744
		c0-16.778-13.609-30.396-30.387-30.396c-16.762,0-30.369,13.617-30.369,30.396v4.744h-1.447c-12.574,0-22.785,10.203-22.785,22.794
		c0,12.592,10.211,22.794,22.785,22.794h1.447v31.807h-31.816v-1.42c0-12.591-10.228-22.794-22.804-22.794
		c-12.591,0-22.785,10.203-22.785,22.794v1.42h-4.746c-16.778,0-30.403,13.61-30.403,30.387c0,16.787,13.626,30.387,30.403,30.387
		h4.746v1.429c0,12.582,10.193,22.787,22.785,22.787c12.576,0,22.804-10.205,22.804-22.787v-1.429h31.816v153.373h-1.447
		c-12.574,0-22.785,10.202-22.785,22.793c0,12.593,10.211,22.795,22.785,22.795h1.447v4.744c0,16.787,13.607,30.387,30.369,30.387
		c16.778,0,30.387-13.6,30.387-30.387v-4.744h1.445c12.575,0,22.786-10.202,22.786-22.795c0-12.591-10.211-22.793-22.786-22.793
		h-1.445V263.173h31.815v1.429c0,12.582,10.227,22.787,22.803,22.787c12.575,0,22.787-10.205,22.787-22.787v-1.429h4.743
		c16.78,0,30.389-13.6,30.389-30.387C391.564,216.009,377.954,202.399,361.175,202.399z"/>
</g>
<g>
</g>
<g>
</g>
<g>
</g>
<g>
</g>
<g>
</g>
<g>
</g>
<g>
</g>
<g>
</g>
<g>
</g>
<g>
</g>
<g>
</g>
<g>
</g>
<g>
</g>
<g>
</g>
<g>
</g>
</svg>
